<svg width="13" height="10" viewBox="0 0 13 10" fill="none" xmlns="http://www.w3.org/2000/svg">
<path d="M3.62734 6.89971L5.42055 6.89971C5.57907 6.89971 5.73111 6.83673 5.84321 6.72463C5.95531 6.61254 6.01828 6.4605 6.01828 6.30197C6.01828 6.14344 5.95531 5.99141 5.84321 5.87931C5.73111 5.76721 5.57907 5.70424 5.42055 5.70424L3.62734 5.70424C3.46881 5.70424 3.31678 5.76721 3.20468 5.87931C3.09258 5.99141 3.02961 6.14344 3.02961 6.30197C3.02961 6.4605 3.09258 6.61254 3.20468 6.72463C3.31678 6.83673 3.46881 6.89971 3.62734 6.89971ZM10.8002 0.922363L2.43187 0.922363C1.95629 0.922363 1.50018 1.11129 1.16389 1.44758C0.827598 1.78387 0.638672 2.23998 0.638672 2.71557L0.638672 8.09517C0.638672 8.57076 0.827598 9.02687 1.16389 9.36316C1.50018 9.69945 1.95629 9.88838 2.43187 9.88838L10.8002 9.88838C11.2757 9.88838 11.7318 9.69945 12.0681 9.36316C12.4044 9.02687 12.5934 8.57076 12.5934 8.09517L12.5934 2.71557C12.5934 2.23998 12.4044 1.78387 12.0681 1.44758C11.7318 1.11129 11.2757 0.922363 10.8002 0.922363ZM11.3979 8.09517C11.3979 8.2537 11.3349 8.40574 11.2228 8.51784C11.1107 8.62993 10.9587 8.69291 10.8002 8.69291L2.43187 8.69291C2.27335 8.69291 2.12131 8.62993 2.00921 8.51784C1.89712 8.40574 1.83414 8.2537 1.83414 8.09517L1.83414 4.50877L11.3979 4.50877L11.3979 8.09517ZM11.3979 3.3133L1.83414 3.3133L1.83414 2.71557C1.83414 2.55704 1.89712 2.405 2.00921 2.2929C2.12131 2.18081 2.27335 2.11783 2.43187 2.11783L10.8002 2.11783C10.9587 2.11783 11.1107 2.18081 11.2228 2.2929C11.3349 2.405 11.3979 2.55704 11.3979 2.71557L11.3979 3.3133Z" fill="#3C37FF"/>
</svg>
