<svg width="34" height="34" viewBox="0 0 34 34" fill="none" xmlns="http://www.w3.org/2000/svg">
<path d="M12.7507 16.9999H9.91733C9.54161 16.9999 9.18127 17.1492 8.91559 17.4149C8.64992 17.6805 8.50066 18.0409 8.50066 18.4166C8.50066 18.7923 8.64992 19.1527 8.91559 19.4183C9.18127 19.684 9.54161 19.8333 9.91733 19.8333H12.7507C13.1264 19.8333 13.4867 19.684 13.7524 19.4183C14.0181 19.1527 14.1673 18.7923 14.1673 18.4166C14.1673 18.0409 14.0181 17.6805 13.7524 17.4149C13.4867 17.1492 13.1264 16.9999 12.7507 16.9999ZM11.334 14.1666H17.0007C17.3764 14.1666 17.7367 14.0173 18.0024 13.7517C18.2681 13.486 18.4173 13.1257 18.4173 12.7499C18.4173 12.3742 18.2681 12.0139 18.0024 11.7482C17.7367 11.4825 17.3764 11.3333 17.0007 11.3333H11.334C10.9583 11.3333 10.5979 11.4825 10.3323 11.7482C10.0666 12.0139 9.91733 12.3742 9.91733 12.7499C9.91733 13.1257 10.0666 13.486 10.3323 13.7517C10.5979 14.0173 10.9583 14.1666 11.334 14.1666ZM12.7507 22.6666H9.91733C9.54161 22.6666 9.18127 22.8159 8.91559 23.0815C8.64992 23.3472 8.50066 23.7075 8.50066 24.0833C8.50066 24.459 8.64992 24.8193 8.91559 25.085C9.18127 25.3507 9.54161 25.4999 9.91733 25.4999H12.7507C13.1264 25.4999 13.4867 25.3507 13.7524 25.085C14.0181 24.8193 14.1673 24.459 14.1673 24.0833C14.1673 23.7075 14.0181 23.3472 13.7524 23.0815C13.4867 22.8159 13.1264 22.6666 12.7507 22.6666ZM29.7507 16.9999H25.5007V4.24993C25.5017 4.0003 25.4367 3.75484 25.3123 3.53841C25.1879 3.32197 25.0085 3.14225 24.7923 3.01743C24.577 2.8931 24.3327 2.82764 24.084 2.82764C23.8353 2.82764 23.591 2.8931 23.3757 3.01743L19.1257 5.4541L14.8757 3.01743C14.6603 2.8931 14.416 2.82764 14.1673 2.82764C13.9187 2.82764 13.6744 2.8931 13.459 3.01743L9.209 5.4541L4.959 3.01743C4.74363 2.8931 4.49934 2.82764 4.25066 2.82764C4.00199 2.82764 3.75769 2.8931 3.54233 3.01743C3.32614 3.14225 3.14677 3.32197 3.02238 3.53841C2.89799 3.75484 2.833 4.0003 2.834 4.24993V26.9166C2.834 28.0438 3.28176 29.1248 4.07879 29.9218C4.87582 30.7188 5.95683 31.1666 7.084 31.1666H26.9173C28.0445 31.1666 29.1255 30.7188 29.9225 29.9218C30.7196 29.1248 31.1673 28.0438 31.1673 26.9166V18.4166C31.1673 18.0409 31.0181 17.6805 30.7524 17.4149C30.4867 17.1492 30.1264 16.9999 29.7507 16.9999ZM7.084 28.3333C6.70827 28.3333 6.34794 28.184 6.08226 27.9183C5.81658 27.6527 5.66733 27.2923 5.66733 26.9166V6.70077L8.50066 8.31577C8.71931 8.42997 8.96232 8.48961 9.209 8.48961C9.45567 8.48961 9.69868 8.42997 9.91733 8.31577L14.1673 5.8791L18.4173 8.31577C18.636 8.42997 18.879 8.48961 19.1257 8.48961C19.3723 8.48961 19.6153 8.42997 19.834 8.31577L22.6673 6.70077V26.9166C22.6712 27.3999 22.7574 27.879 22.9223 28.3333H7.084ZM28.334 26.9166C28.334 27.2923 28.1847 27.6527 27.9191 27.9183C27.6534 28.184 27.2931 28.3333 26.9173 28.3333C26.5416 28.3333 26.1813 28.184 25.9156 27.9183C25.6499 27.6527 25.5007 27.2923 25.5007 26.9166V19.8333H28.334V26.9166ZM19.2107 22.9074C19.1317 22.8538 19.0459 22.8109 18.9557 22.7799C18.8713 22.7368 18.7803 22.7081 18.6865 22.6949C18.4589 22.6494 18.2236 22.6604 18.0013 22.7271C17.7789 22.7938 17.5764 22.9141 17.4115 23.0774C17.1526 23.3489 17.0059 23.7082 17.0007 24.0833C16.9984 24.2675 17.0321 24.4503 17.0998 24.6216C17.1768 24.7938 17.2822 24.9518 17.4115 25.0891C17.5492 25.2142 17.7073 25.3149 17.879 25.3866C18.0486 25.4616 18.2319 25.5003 18.4173 25.5003C18.6027 25.5003 18.7861 25.4616 18.9557 25.3866C19.1273 25.3149 19.2855 25.2142 19.4232 25.0891C19.5545 24.9567 19.6583 24.7997 19.7288 24.6271C19.7993 24.4545 19.8351 24.2697 19.834 24.0833C19.8288 23.7082 19.682 23.3489 19.4232 23.0774C19.3558 23.0165 19.2849 22.9597 19.2107 22.9074V22.9074ZM19.409 17.4108C19.2436 17.2497 19.0413 17.1315 18.8197 17.0664C18.5982 17.0014 18.3641 16.9914 18.1378 17.0375C17.9116 17.0836 17.7 17.1843 17.5216 17.3308C17.3431 17.4774 17.2032 17.6653 17.114 17.8783C17.0258 18.0929 16.9917 18.3259 17.0147 18.5568C17.0376 18.7877 17.1169 19.0094 17.2456 19.2024C17.3744 19.3955 17.5485 19.554 17.7528 19.664C17.9571 19.774 18.1853 19.8321 18.4173 19.8333C18.7931 19.8333 19.1534 19.684 19.4191 19.4183C19.6847 19.1527 19.834 18.7923 19.834 18.4166C19.8318 18.2315 19.7933 18.0486 19.7207 17.8783C19.6524 17.7014 19.546 17.5418 19.409 17.4108V17.4108Z" fill="#3C37FF"/>
</svg>
