<svg width="34" height="34" viewBox="0 0 34 34" fill="none" xmlns="http://www.w3.org/2000/svg">
<path d="M31.166 24.0834H2.83268C2.45696 24.0834 2.09662 24.2327 1.83095 24.4983C1.56527 24.764 1.41602 25.1244 1.41602 25.5001C1.41602 25.8758 1.56527 26.2361 1.83095 26.5018C2.09662 26.7675 2.45696 26.9167 2.83268 26.9167H31.166C31.5417 26.9167 31.9021 26.7675 32.1678 26.5018C32.4334 26.2361 32.5827 25.8758 32.5827 25.5001C32.5827 25.1244 32.4334 24.764 32.1678 24.4983C31.9021 24.2327 31.5417 24.0834 31.166 24.0834ZM31.166 29.7501H2.83268C2.45696 29.7501 2.09662 29.8993 1.83095 30.165C1.56527 30.4307 1.41602 30.791 1.41602 31.1667C1.41602 31.5425 1.56527 31.9028 1.83095 32.1685C2.09662 32.4342 2.45696 32.5834 2.83268 32.5834H31.166C31.5417 32.5834 31.9021 32.4342 32.1678 32.1685C32.4334 31.9028 32.5827 31.5425 32.5827 31.1667C32.5827 30.791 32.4334 30.4307 32.1678 30.165C31.9021 29.8993 31.5417 29.7501 31.166 29.7501ZM8.49935 9.91675C8.21916 9.91675 7.94526 9.99984 7.71229 10.1555C7.47932 10.3112 7.29774 10.5324 7.19052 10.7913C7.0833 11.0501 7.05524 11.335 7.1099 11.6098C7.16457 11.8846 7.29949 12.137 7.49761 12.3351C7.69574 12.5333 7.94816 12.6682 8.22297 12.7229C8.49778 12.7775 8.78262 12.7495 9.04148 12.6422C9.30035 12.535 9.5216 12.3534 9.67726 12.1205C9.83293 11.8875 9.91602 11.6136 9.91602 11.3334C9.91602 10.9577 9.76676 10.5974 9.50108 10.3317C9.23541 10.066 8.87507 9.91675 8.49935 9.91675ZM28.3327 1.41675H5.66602C4.53885 1.41675 3.45784 1.86451 2.66081 2.66154C1.86378 3.45857 1.41602 4.53958 1.41602 5.66675V17.0001C1.41602 18.1273 1.86378 19.2083 2.66081 20.0053C3.45784 20.8023 4.53885 21.2501 5.66602 21.2501H28.3327C29.4599 21.2501 30.5409 20.8023 31.3379 20.0053C32.1349 19.2083 32.5827 18.1273 32.5827 17.0001V5.66675C32.5827 4.53958 32.1349 3.45857 31.3379 2.66154C30.5409 1.86451 29.4599 1.41675 28.3327 1.41675ZM29.7494 17.0001C29.7494 17.3758 29.6001 17.7361 29.3344 18.0018C29.0687 18.2675 28.7084 18.4167 28.3327 18.4167H5.66602C5.29029 18.4167 4.92996 18.2675 4.66428 18.0018C4.3986 17.7361 4.24935 17.3758 4.24935 17.0001V5.66675C4.24935 5.29102 4.3986 4.93069 4.66428 4.66501C4.92996 4.39934 5.29029 4.25008 5.66602 4.25008H28.3327C28.7084 4.25008 29.0687 4.39934 29.3344 4.66501C29.6001 4.93069 29.7494 5.29102 29.7494 5.66675V17.0001ZM16.9993 7.08342C16.1588 7.08342 15.3371 7.33267 14.6382 7.79967C13.9393 8.26667 13.3945 8.93042 13.0729 9.70701C12.7512 10.4836 12.667 11.3381 12.831 12.1625C12.995 12.987 13.3998 13.7442 13.9941 14.3386C14.5885 14.933 15.3458 15.3378 16.1702 15.5018C16.9946 15.6657 17.8492 15.5816 18.6258 15.2599C19.4023 14.9382 20.0661 14.3935 20.5331 13.6946C21.0001 12.9957 21.2493 12.174 21.2493 11.3334C21.2493 10.2062 20.8016 9.12524 20.0046 8.32821C19.2075 7.53118 18.1265 7.08342 16.9993 7.08342ZM16.9993 12.7501C16.7192 12.7501 16.4453 12.667 16.2123 12.5113C15.9793 12.3557 15.7977 12.1344 15.6905 11.8756C15.5833 11.6167 15.5552 11.3318 15.6099 11.057C15.6646 10.7822 15.7995 10.5298 15.9976 10.3317C16.1957 10.1336 16.4482 9.99863 16.723 9.94397C16.9978 9.88931 17.2826 9.91736 17.5415 10.0246C17.8003 10.1318 18.0216 10.3134 18.1773 10.5464C18.3329 10.7793 18.416 11.0532 18.416 11.3334C18.416 11.7091 18.2668 12.0695 18.0011 12.3351C17.7354 12.6008 17.3751 12.7501 16.9993 12.7501ZM25.4993 9.91675C25.2192 9.91675 24.9453 9.99984 24.7123 10.1555C24.4793 10.3112 24.2977 10.5324 24.1905 10.7913C24.0833 11.0501 24.0552 11.335 24.1099 11.6098C24.1646 11.8846 24.2995 12.137 24.4976 12.3351C24.6957 12.5333 24.9482 12.6682 25.223 12.7229C25.4978 12.7775 25.7826 12.7495 26.0415 12.6422C26.3003 12.535 26.5216 12.3534 26.6773 12.1205C26.8329 11.8875 26.916 11.6136 26.916 11.3334C26.916 10.9577 26.7668 10.5974 26.5011 10.3317C26.2354 10.066 25.8751 9.91675 25.4993 9.91675Z" fill="#3C37FF"/>
</svg>
