<svg width="34" height="34" viewBox="0 0 34 34" fill="none" xmlns="http://www.w3.org/2000/svg">
<path d="M28.2065 21.9724H21.789C21.4133 21.9724 21.0529 22.1217 20.7873 22.3874C20.5216 22.653 20.3723 23.0134 20.3723 23.3891C20.3723 23.7648 20.5216 24.1251 20.7873 24.3908C21.0529 24.6565 21.4133 24.8058 21.789 24.8058H25.189C23.6263 26.4388 21.6111 27.5673 19.4021 28.0462C17.1932 28.5252 14.8915 28.3327 12.7928 27.4935C10.6941 26.6543 8.8943 25.2068 7.62457 23.3369C6.35484 21.467 5.67323 19.2602 5.66732 16.9999C5.66732 16.6242 5.51806 16.2639 5.25239 15.9982C4.98671 15.7325 4.62637 15.5833 4.25065 15.5833C3.87493 15.5833 3.51459 15.7325 3.24892 15.9982C2.98324 16.2639 2.83398 16.6242 2.83398 16.9999C2.84147 19.7664 3.6588 22.4701 5.18509 24.7775C6.71138 27.0848 8.87984 28.8948 11.4229 29.984C13.9659 31.0732 16.7722 31.394 19.4954 30.9068C22.2187 30.4196 24.7397 29.1458 26.7473 27.2424V29.7499C26.7473 30.1256 26.8966 30.486 27.1623 30.7517C27.4279 31.0173 27.7883 31.1666 28.164 31.1666C28.5397 31.1666 28.9 31.0173 29.1657 30.7517C29.4314 30.486 29.5807 30.1256 29.5807 29.7499V23.3749C29.5772 23.0089 29.4321 22.6584 29.176 22.397C28.9198 22.1355 28.5724 21.9834 28.2065 21.9724ZM17.0007 2.83325C13.3689 2.84361 9.87976 4.24838 7.25398 6.75742V4.24992C7.25398 3.8742 7.10473 3.51386 6.83905 3.24818C6.57338 2.98251 6.21304 2.83325 5.83732 2.83325C5.46159 2.83325 5.10126 2.98251 4.83558 3.24818C4.56991 3.51386 4.42065 3.8742 4.42065 4.24992V10.6249C4.42065 11.0006 4.56991 11.361 4.83558 11.6267C5.10126 11.8923 5.46159 12.0416 5.83732 12.0416H12.2123C12.588 12.0416 12.9484 11.8923 13.2141 11.6267C13.4797 11.361 13.629 11.0006 13.629 10.6249C13.629 10.2492 13.4797 9.88886 13.2141 9.62318C12.9484 9.35751 12.588 9.20825 12.2123 9.20825H8.81232C10.3741 7.57607 12.3881 6.44788 14.5957 5.96849C16.8033 5.4891 19.1038 5.68039 21.2019 6.51781C23.3 7.35522 25.1 8.80055 26.3708 10.6683C27.6416 12.536 28.3253 14.7409 28.334 16.9999C28.334 17.3756 28.4832 17.736 28.7489 18.0017C29.0146 18.2673 29.3749 18.4166 29.7507 18.4166C30.1264 18.4166 30.4867 18.2673 30.7524 18.0017C31.0181 17.736 31.1673 17.3756 31.1673 16.9999C31.1673 15.1395 30.8009 13.2973 30.0889 11.5786C29.377 9.85979 28.3335 8.29807 27.018 6.98257C25.7025 5.66708 24.1408 4.62357 22.422 3.91163C20.7032 3.19968 18.861 2.83325 17.0007 2.83325V2.83325Z" fill="#3C37FF"/>
</svg>
