<svg width="10" height="8" viewBox="0 0 10 8" fill="none" xmlns="http://www.w3.org/2000/svg">
<path d="M7.71907 0.79006L3.42908 5.09006L1.77907 3.44006C1.68943 3.33538 1.57911 3.25036 1.45504 3.19033C1.33098 3.13031 1.19585 3.09658 1.05813 3.09126C0.920409 3.08594 0.783077 3.10915 0.654752 3.15942C0.526427 3.2097 0.409879 3.28595 0.312425 3.38341C0.21497 3.48086 0.138712 3.59741 0.0884375 3.72574C0.0381629 3.85406 0.014957 3.99139 0.0202765 4.12911C0.025596 4.26683 0.0593262 4.40197 0.119349 4.52603C0.179373 4.65009 0.264393 4.76041 0.369075 4.85006L2.71908 7.21006C2.81252 7.30274 2.92333 7.37607 3.04517 7.42583C3.16701 7.47559 3.29747 7.50082 3.42908 7.50006C3.69142 7.49895 3.94281 7.3948 4.12908 7.21006L9.12907 2.21006C9.2228 2.1171 9.2972 2.0065 9.34797 1.88464C9.39873 1.76278 9.42487 1.63207 9.42487 1.50006C9.42487 1.36805 9.39873 1.23734 9.34797 1.11548C9.2972 0.993624 9.2228 0.883023 9.12907 0.79006C8.94171 0.603809 8.68826 0.499267 8.42407 0.499267C8.15989 0.499267 7.90644 0.603809 7.71907 0.79006Z" fill="#3C37FF"/>
</svg>
