<svg width="22" height="16" viewBox="0 0 22 16" fill="none" xmlns="http://www.w3.org/2000/svg">
<path d="M9.57729 11.3684C9.57729 8.63158 7.84227 7.08772 5.69085 7.08772C4.85804 7.08772 4.23344 7.29825 3.74763 7.57895C3.74763 5.33334 5.69085 3.50877 8.39748 2.94737V0C3.53943 0.701754 0 4.77193 0 9.89474C0 13.6842 2.22082 16 4.99684 16C7.77287 16 9.57729 14.0351 9.57729 11.3684ZM22 11.3684C22 8.63158 20.1956 7.08772 18.0442 7.08772C17.2808 7.08772 16.6562 7.22807 16.1703 7.50877C16.1703 5.33334 18.1136 3.50877 20.8202 2.94737V0C15.9621 0.701754 12.3533 4.77193 12.3533 9.89474C12.3533 13.6842 14.5741 16 17.4196 16C20.1262 16 22 14.0351 22 11.3684Z" fill="#111111"/>
</svg>
